<svg xmlns="http://www.w3.org/2000/svg" xmlns:xlink="http://www.w3.org/1999/xlink" width="40" zoomAndPan="magnify" viewBox="0 0 30 30.000001" height="40" preserveAspectRatio="xMidYMid meet" version="1.0"><defs><clipPath id="fa2f869cc1"><path d="M 0.484375 0 L 29.515625 0 L 29.515625 29.03125 L 0.484375 29.03125 Z M 0.484375 0 " clip-rule="nonzero"/></clipPath><clipPath id="d9a9645674"><path d="M 5 5 L 25 5 L 25 24.75 L 5 24.75 Z M 5 5 " clip-rule="nonzero"/></clipPath></defs><g clip-path="url(#fa2f869cc1)"><path fill="#ffffff" d="M 0.484375 0 L 29.515625 0 L 29.515625 29.03125 L 0.484375 29.03125 Z M 0.484375 0 " fill-opacity="1" fill-rule="nonzero"/><path fill="#d2973b" d="M 0.484375 0 L 29.515625 0 L 29.515625 29.03125 L 0.484375 29.03125 Z M 0.484375 0 " fill-opacity="1" fill-rule="nonzero"/></g><g clip-path="url(#d9a9645674)"><path fill="#000000" d="M 24.367188 14.957031 C 24.367188 15.585938 24.308594 16.207031 24.183594 16.824219 C 24.0625 17.441406 23.878906 18.039062 23.640625 18.617188 C 23.398438 19.199219 23.101562 19.75 22.753906 20.269531 C 22.40625 20.792969 22.007812 21.277344 21.5625 21.71875 C 21.117188 22.164062 20.632812 22.558594 20.109375 22.910156 C 19.585938 23.257812 19.035156 23.550781 18.453125 23.792969 C 17.875 24.03125 17.273438 24.214844 16.65625 24.335938 C 16.039062 24.457031 15.417969 24.519531 14.789062 24.519531 C 14.160156 24.519531 13.535156 24.457031 12.917969 24.335938 C 12.300781 24.214844 11.703125 24.03125 11.121094 23.792969 C 10.542969 23.550781 9.988281 23.257812 9.464844 22.910156 C 8.941406 22.558594 8.460938 22.164062 8.015625 21.71875 C 7.570312 21.277344 7.171875 20.792969 6.824219 20.269531 C 6.472656 19.75 6.179688 19.199219 5.9375 18.617188 C 5.695312 18.039062 5.515625 17.441406 5.394531 16.824219 C 5.269531 16.207031 5.207031 15.585938 5.207031 14.957031 C 5.207031 14.332031 5.269531 13.707031 5.394531 13.09375 C 5.515625 12.476562 5.695312 11.878906 5.9375 11.300781 C 6.179688 10.71875 6.472656 10.167969 6.824219 9.644531 C 7.171875 9.125 7.570312 8.640625 8.015625 8.195312 C 8.460938 7.753906 8.941406 7.355469 9.464844 7.007812 C 9.988281 6.660156 10.542969 6.363281 11.121094 6.125 C 11.703125 5.882812 12.300781 5.703125 12.917969 5.582031 C 13.535156 5.457031 14.160156 5.398438 14.789062 5.398438 C 15.417969 5.398438 16.039062 5.457031 16.65625 5.582031 C 17.273438 5.703125 17.875 5.882812 18.453125 6.125 C 19.035156 6.363281 19.585938 6.660156 20.109375 7.007812 C 20.632812 7.355469 21.117188 7.753906 21.5625 8.195312 C 22.007812 8.640625 22.40625 9.125 22.753906 9.644531 C 23.101562 10.167969 23.398438 10.71875 23.640625 11.300781 C 23.878906 11.878906 24.0625 12.476562 24.183594 13.09375 C 24.308594 13.707031 24.367188 14.332031 24.367188 14.957031 Z M 24.367188 14.957031 " fill-opacity="1" fill-rule="nonzero"/><path fill="#000000" d="M 14.789062 24.746094 C 14.386719 24.746094 13.992188 24.722656 13.59375 24.671875 C 13.195312 24.621094 12.804688 24.550781 12.417969 24.453125 C 12.027344 24.355469 11.648438 24.234375 11.273438 24.089844 C 10.902344 23.945312 10.539062 23.78125 10.1875 23.589844 C 9.835938 23.402344 9.496094 23.195312 9.167969 22.964844 C 8.839844 22.734375 8.53125 22.484375 8.234375 22.21875 C 7.9375 21.949219 7.660156 21.664062 7.398438 21.363281 C 7.136719 21.058594 6.894531 20.742188 6.671875 20.410156 C 6.449219 20.078125 6.25 19.734375 6.070312 19.378906 C 5.890625 19.023438 5.730469 18.65625 5.597656 18.28125 C 5.460938 17.902344 5.351562 17.523438 5.261719 17.132812 C 5.175781 16.742188 5.109375 16.347656 5.070312 15.953125 C 5.03125 15.554688 5.015625 15.15625 5.027344 14.757812 C 5.035156 14.359375 5.070312 13.960938 5.128906 13.566406 C 5.1875 13.171875 5.269531 12.78125 5.375 12.398438 C 5.480469 12.011719 5.609375 11.636719 5.761719 11.265625 C 5.914062 10.898438 6.089844 10.539062 6.285156 10.191406 C 6.484375 9.84375 6.699219 9.511719 6.9375 9.1875 C 7.175781 8.867188 7.429688 8.5625 7.707031 8.273438 C 7.980469 7.984375 8.273438 7.710938 8.582031 7.457031 C 8.890625 7.203125 9.214844 6.96875 9.550781 6.757812 C 9.886719 6.542969 10.238281 6.347656 10.597656 6.175781 C 10.960938 6.003906 11.328125 5.855469 11.707031 5.730469 C 12.089844 5.605469 12.472656 5.5 12.867188 5.421875 C 13.257812 5.34375 13.652344 5.289062 14.050781 5.257812 C 14.449219 5.226562 14.851562 5.222656 15.25 5.238281 C 15.648438 5.257812 16.046875 5.300781 16.441406 5.367188 C 16.832031 5.433594 17.222656 5.523438 17.605469 5.640625 C 17.988281 5.753906 18.363281 5.890625 18.730469 6.050781 C 19.09375 6.210938 19.449219 6.394531 19.792969 6.597656 C 20.136719 6.800781 20.46875 7.027344 20.785156 7.269531 C 21.101562 7.515625 21.402344 7.777344 21.683594 8.058594 C 21.96875 8.339844 22.234375 8.636719 22.480469 8.949219 C 22.730469 9.265625 22.957031 9.589844 23.164062 9.933594 C 23.371094 10.273438 23.554688 10.625 23.71875 10.992188 C 23.882812 11.355469 24.023438 11.726562 24.144531 12.109375 C 24.261719 12.492188 24.355469 12.878906 24.425781 13.269531 C 24.496094 13.664062 24.542969 14.058594 24.5625 14.457031 C 24.585938 14.855469 24.582031 15.253906 24.554688 15.652344 C 24.527344 16.050781 24.476562 16.445312 24.402344 16.835938 C 24.324219 17.230469 24.226562 17.617188 24.101562 17.996094 C 23.980469 18.375 23.832031 18.746094 23.664062 19.105469 C 23.496094 19.46875 23.304688 19.820312 23.09375 20.15625 C 22.882812 20.496094 22.648438 20.820312 22.398438 21.128906 C 22.144531 21.441406 21.875 21.734375 21.589844 22.011719 C 21.300781 22.289062 20.996094 22.546875 20.675781 22.785156 C 20.359375 23.027344 20.023438 23.246094 19.679688 23.445312 C 19.332031 23.644531 18.972656 23.820312 18.605469 23.976562 C 17.386719 24.492188 16.113281 24.75 14.789062 24.746094 Z M 14.789062 5.625 C 9.632812 5.625 5.4375 9.8125 5.4375 14.957031 C 5.4375 20.105469 9.632812 24.292969 14.789062 24.292969 C 19.945312 24.292969 24.140625 20.105469 24.140625 14.957031 C 24.140625 9.8125 19.945312 5.625 14.789062 5.625 Z M 14.789062 5.625 " fill-opacity="1" fill-rule="nonzero"/></g><path fill="#ffffff" d="M 9.832031 10.6875 L 19.746094 10.6875 C 19.882812 10.6875 20.015625 10.714844 20.144531 10.765625 C 20.269531 10.816406 20.382812 10.894531 20.480469 10.988281 C 20.574219 11.085938 20.648438 11.199219 20.703125 11.324219 C 20.753906 11.453125 20.78125 11.582031 20.78125 11.71875 L 20.78125 18.195312 C 20.78125 18.332031 20.753906 18.464844 20.703125 18.59375 C 20.648438 18.71875 20.574219 18.828125 20.480469 18.925781 C 20.382812 19.023438 20.269531 19.097656 20.144531 19.152344 C 20.015625 19.203125 19.882812 19.230469 19.746094 19.230469 L 9.832031 19.230469 C 9.691406 19.230469 9.5625 19.203125 9.433594 19.152344 C 9.308594 19.097656 9.195312 19.023438 9.097656 18.925781 C 9 18.828125 8.925781 18.71875 8.875 18.59375 C 8.820312 18.464844 8.796875 18.332031 8.796875 18.195312 L 8.796875 11.71875 C 8.796875 11.582031 8.820312 11.453125 8.875 11.324219 C 8.925781 11.199219 9 11.085938 9.097656 10.988281 C 9.195312 10.894531 9.308594 10.816406 9.433594 10.765625 C 9.5625 10.714844 9.691406 10.6875 9.832031 10.6875 Z M 9.832031 10.6875 " fill-opacity="1" fill-rule="nonzero"/><path fill="#000000" d="M 19.746094 19.457031 L 9.832031 19.457031 C 9.664062 19.457031 9.503906 19.421875 9.347656 19.359375 C 9.191406 19.296875 9.058594 19.203125 8.9375 19.085938 C 8.820312 18.96875 8.730469 18.832031 8.664062 18.679688 C 8.601562 18.523438 8.570312 18.363281 8.570312 18.195312 L 8.570312 11.71875 C 8.570312 11.554688 8.601562 11.390625 8.664062 11.238281 C 8.730469 11.085938 8.820312 10.949219 8.9375 10.828125 C 9.058594 10.710938 9.191406 10.621094 9.347656 10.558594 C 9.503906 10.492188 9.664062 10.460938 9.832031 10.460938 L 19.746094 10.460938 C 19.914062 10.460938 20.074219 10.492188 20.230469 10.558594 C 20.382812 10.621094 20.519531 10.710938 20.636719 10.828125 C 20.757812 10.949219 20.847656 11.085938 20.914062 11.238281 C 20.976562 11.390625 21.007812 11.554688 21.007812 11.71875 L 21.007812 18.195312 C 21.007812 18.363281 20.976562 18.523438 20.914062 18.679688 C 20.847656 18.832031 20.757812 18.96875 20.636719 19.085938 C 20.519531 19.203125 20.382812 19.296875 20.230469 19.359375 C 20.074219 19.421875 19.914062 19.457031 19.746094 19.457031 Z M 9.832031 10.914062 C 9.605469 10.914062 9.417969 10.992188 9.257812 11.148438 C 9.101562 11.308594 9.023438 11.496094 9.023438 11.71875 L 9.023438 18.195312 C 9.023438 18.417969 9.101562 18.609375 9.257812 18.765625 C 9.417969 18.921875 9.605469 19.003906 9.832031 19.003906 L 19.746094 19.003906 C 19.96875 19.003906 20.160156 18.921875 20.316406 18.765625 C 20.476562 18.609375 20.554688 18.417969 20.554688 18.195312 L 20.554688 11.71875 C 20.554688 11.496094 20.476562 11.308594 20.316406 11.148438 C 20.160156 10.992188 19.96875 10.914062 19.746094 10.914062 Z M 9.832031 10.914062 " fill-opacity="1" fill-rule="nonzero"/><path fill="#ffffff" d="M 14.78125 10.6875 L 20.105469 10.6875 C 20.589844 10.6875 20.828125 11.277344 20.480469 11.617188 L 18.105469 13.957031 L 15.160156 16.855469 C 15.054688 16.957031 14.929688 17.007812 14.78125 17.007812 C 14.636719 17.007812 14.511719 16.957031 14.40625 16.855469 L 11.460938 13.957031 L 9.082031 11.617188 C 8.738281 11.277344 8.976562 10.6875 9.460938 10.6875 Z M 14.78125 10.6875 " fill-opacity="1" fill-rule="nonzero"/><path fill="#000000" d="M 14.78125 17.234375 C 14.574219 17.234375 14.394531 17.160156 14.246094 17.015625 L 8.925781 11.777344 C 8.679688 11.539062 8.621094 11.257812 8.75 10.941406 C 8.878906 10.621094 9.117188 10.460938 9.460938 10.460938 L 20.105469 10.460938 C 20.449219 10.460938 20.683594 10.621094 20.816406 10.941406 C 20.945312 11.257812 20.886719 11.539062 20.640625 11.777344 L 15.320312 17.015625 C 15.171875 17.160156 14.992188 17.234375 14.78125 17.234375 Z M 9.460938 10.914062 C 9.320312 10.914062 9.222656 10.976562 9.171875 11.109375 C 9.117188 11.242188 9.140625 11.355469 9.242188 11.457031 L 14.566406 16.691406 C 14.625 16.753906 14.699219 16.78125 14.78125 16.78125 C 14.867188 16.78125 14.941406 16.753906 15 16.691406 L 20.324219 11.457031 C 20.425781 11.355469 20.449219 11.242188 20.394531 11.109375 C 20.34375 10.976562 20.246094 10.914062 20.105469 10.914062 Z M 9.460938 10.914062 " fill-opacity="1" fill-rule="nonzero"/></svg>