<svg xmlns="http://www.w3.org/2000/svg" xmlns:xlink="http://www.w3.org/1999/xlink" width="40" zoomAndPan="magnify" viewBox="0 0 30 30.000001" height="40" preserveAspectRatio="xMidYMid meet" version="1.0"><defs><clipPath id="b5713136b5"><path d="M 0.484375 0 L 29.515625 0 L 29.515625 29.03125 L 0.484375 29.03125 Z M 0.484375 0 " clip-rule="nonzero"/></clipPath><clipPath id="ccf75b63e5"><path d="M 3.386719 4.222656 L 25.886719 4.222656 L 25.886719 24.542969 L 3.386719 24.542969 Z M 3.386719 4.222656 " clip-rule="nonzero"/></clipPath></defs><g clip-path="url(#b5713136b5)"><path fill="#ffffff" d="M 0.484375 0 L 29.515625 0 L 29.515625 29.03125 L 0.484375 29.03125 Z M 0.484375 0 " fill-opacity="1" fill-rule="nonzero"/><path fill="#d2973b" d="M 0.484375 0 L 29.515625 0 L 29.515625 29.03125 L 0.484375 29.03125 Z M 0.484375 0 " fill-opacity="1" fill-rule="nonzero"/></g><path fill="#1cd429" d="M 21.398438 14.378906 C 21.398438 17.664062 18.695312 20.316406 15.339844 20.328125 C 14.535156 20.332031 13.761719 20.1875 13.019531 19.890625 C 12.273438 19.59375 11.617188 19.171875 11.046875 18.621094 L 8.792969 19.015625 C 8.675781 19.035156 8.578125 19 8.507812 18.902344 C 8.433594 18.808594 8.425781 18.707031 8.480469 18.601562 L 9.617188 16.472656 C 9.351562 15.777344 9.222656 15.054688 9.230469 14.3125 C 9.269531 11.042969 11.972656 8.429688 15.3125 8.429688 C 18.671875 8.429688 21.398438 11.09375 21.398438 14.378906 Z M 21.398438 14.378906 " fill-opacity="1" fill-rule="nonzero"/><g clip-path="url(#ccf75b63e5)"><path fill="#ffffff" d="M 15.488281 4.21875 C 9.75 4.21875 5.097656 8.769531 5.097656 14.378906 C 5.097656 15.625 5.324219 16.828125 5.777344 17.992188 L 3.464844 22.234375 C 3.390625 22.367188 3.398438 22.496094 3.488281 22.617188 C 3.582031 22.742188 3.703125 22.792969 3.855469 22.765625 L 8.601562 21.988281 C 9.550781 22.8125 10.617188 23.441406 11.804688 23.882812 C 12.992188 24.324219 14.21875 24.542969 15.488281 24.539062 C 21.226562 24.539062 25.878906 19.992188 25.878906 14.378906 C 25.878906 8.773438 21.222656 4.21875 15.488281 4.21875 Z M 15.519531 21.890625 C 14.503906 21.894531 13.527344 21.710938 12.589844 21.335938 C 11.652344 20.964844 10.820312 20.429688 10.101562 19.730469 L 7.257812 20.234375 C 7.105469 20.257812 6.984375 20.210938 6.894531 20.089844 C 6.804688 19.96875 6.792969 19.84375 6.863281 19.710938 L 8.296875 17.023438 C 7.960938 16.144531 7.796875 15.234375 7.808594 14.292969 C 7.855469 10.167969 11.269531 6.871094 15.488281 6.871094 C 19.730469 6.871094 23.167969 10.230469 23.167969 14.378906 C 23.167969 18.523438 19.757812 21.875 15.519531 21.890625 Z M 15.519531 21.890625 " fill-opacity="1" fill-rule="nonzero"/></g><path fill="#ffffff" d="M 14.453125 12.375 L 14.1875 11.277344 C 14.15625 11.152344 14.101562 11.035156 14.019531 10.933594 C 13.941406 10.828125 13.839844 10.746094 13.722656 10.683594 C 13.605469 10.621094 13.480469 10.585938 13.347656 10.578125 C 13.214844 10.566406 13.085938 10.585938 12.960938 10.628906 L 12.351562 10.84375 C 12.144531 10.917969 11.984375 11.042969 11.871094 11.226562 C 11.753906 11.40625 11.710938 11.605469 11.738281 11.816406 C 11.953125 13.511719 12.933594 17.617188 17.453125 18.515625 C 17.636719 18.554688 17.816406 18.539062 17.988281 18.46875 C 18.164062 18.402344 18.304688 18.292969 18.410156 18.140625 L 18.761719 17.644531 C 18.90625 17.4375 18.957031 17.210938 18.914062 16.960938 C 18.867188 16.714844 18.738281 16.515625 18.523438 16.375 L 18.519531 16.371094 L 17.746094 15.855469 C 17.574219 15.742188 17.382812 15.6875 17.175781 15.699219 C 16.96875 15.707031 16.785156 15.777344 16.625 15.90625 C 16.464844 16.035156 16.285156 16.105469 16.078125 16.113281 C 15.871094 16.125 15.683594 16.074219 15.511719 15.960938 C 15.039062 15.652344 14.402344 15.136719 13.992188 14.425781 C 13.894531 14.261719 13.855469 14.085938 13.871094 13.898438 C 13.886719 13.710938 13.953125 13.546875 14.074219 13.398438 L 14.273438 13.15625 C 14.464844 12.925781 14.523438 12.664062 14.453125 12.375 Z M 14.453125 12.375 " fill-opacity="1" fill-rule="nonzero"/></svg>